<svg xmlns="http://www.w3.org/2000/svg" width="1200" height="630" viewBox="0 0 1200 630" role="img" aria-labelledby="title desc">
  <title id="title">Sidebar Showcase repository thumbnail</title>
  <desc id="desc">A dark dashboard workspace displaying six colorful sidebar variants and an activity panel.</desc>
  <defs>
    <linearGradient id="bg" x1="0" y1="0" x2="1" y2="1">
      <stop offset="0" stop-color="#0B1020"/>
      <stop offset="0.55" stop-color="#111827"/>
      <stop offset="1" stop-color="#1E293B"/>
    </linearGradient>
    <filter id="shadow" x="-20%" y="-20%" width="140%" height="140%">
      <feDropShadow dx="0" dy="18" stdDeviation="22" flood-color="#000000" flood-opacity="0.28"/>
    </filter>
  </defs>

  <rect width="1200" height="630" rx="28" fill="url(#bg)"/>
  <circle cx="1010" cy="80" r="250" fill="#6366F1" opacity="0.12"/>
  <circle cx="130" cy="590" r="240" fill="#10B981" opacity="0.08"/>

  <g transform="translate(70 72)">
    <text x="0" y="0" fill="#94A3B8" font-family="Inter,Arial,sans-serif" font-size="15" font-weight="700" letter-spacing="5">FIGMA TO INTERACTIVE REACT SYSTEM</text>
    <text x="0" y="82" fill="#F8FAFC" font-family="Inter,Arial,sans-serif" font-size="70" font-weight="800">Sidebar</text>
    <text x="0" y="150" fill="#818CF8" font-family="Inter,Arial,sans-serif" font-size="70" font-weight="800">Showcase</text>
    <text x="2" y="196" fill="#CBD5E1" font-family="Inter,Arial,sans-serif" font-size="20">Six variants. One interaction engine. One reducer-driven playground.</text>

    <g transform="translate(0 240)">
      <rect width="520" height="182" rx="20" fill="#0F172A" stroke="#334155" filter="url(#shadow)"/>
      <text x="24" y="30" fill="#94A3B8" font-family="Inter,Arial,sans-serif" font-size="12" font-weight="700" letter-spacing="2">VARIANT MATRIX</text>
      <g transform="translate(24 50)">
        <g>
          <rect width="145" height="48" rx="12" fill="#1E293B" stroke="#EA580C"/>
          <circle cx="22" cy="24" r="6" fill="#EA580C"/>
          <text x="38" y="29" fill="#F8FAFC" font-family="Inter,Arial,sans-serif" font-size="14">Customer Panel</text>
        </g>
        <g transform="translate(162 0)">
          <rect width="145" height="48" rx="12" fill="#1E293B" stroke="#3B82F6"/>
          <circle cx="22" cy="24" r="6" fill="#3B82F6"/>
          <text x="38" y="29" fill="#F8FAFC" font-family="Inter,Arial,sans-serif" font-size="14">Dark Navigation</text>
        </g>
        <g transform="translate(324 0)">
          <rect width="145" height="48" rx="12" fill="#1E293B" stroke="#F97316"/>
          <circle cx="22" cy="24" r="6" fill="#F97316"/>
          <text x="38" y="29" fill="#F8FAFC" font-family="Inter,Arial,sans-serif" font-size="14">Grouped Cards</text>
        </g>
        <g transform="translate(0 66)">
          <rect width="145" height="48" rx="12" fill="#1E293B" stroke="#6366F1"/>
          <circle cx="22" cy="24" r="6" fill="#6366F1"/>
          <text x="38" y="29" fill="#F8FAFC" font-family="Inter,Arial,sans-serif" font-size="14">Dual Panel</text>
        </g>
        <g transform="translate(162 66)">
          <rect width="145" height="48" rx="12" fill="#1E293B" stroke="#10B981"/>
          <circle cx="22" cy="24" r="6" fill="#10B981"/>
          <text x="38" y="29" fill="#F8FAFC" font-family="Inter,Arial,sans-serif" font-size="14">Green Minimal</text>
        </g>
        <g transform="translate(324 66)">
          <rect width="145" height="48" rx="12" fill="#1E293B" stroke="#3B82F6"/>
          <circle cx="22" cy="24" r="6" fill="#3B82F6"/>
          <text x="38" y="29" fill="#F8FAFC" font-family="Inter,Arial,sans-serif" font-size="14">Dashboard Nav</text>
        </g>
      </g>
    </g>

    <g transform="translate(0 452)">
      <rect width="180" height="48" rx="12" fill="#6366F1"/>
      <text x="90" y="31" text-anchor="middle" fill="#FFFFFF" font-family="Inter,Arial,sans-serif" font-size="14" font-weight="700" letter-spacing="2">CASE STUDY</text>
      <text x="206" y="31" fill="#94A3B8" font-family="Inter,Arial,sans-serif" font-size="15">React · Vite · Tailwind · Reducer</text>
    </g>
  </g>

  <g transform="translate(670 70)">
    <rect width="460" height="490" rx="24" fill="#F8FAFC" filter="url(#shadow)"/>
    <rect width="140" height="490" rx="24" fill="#0F172A"/>
    <rect x="20" y="24" width="100" height="14" rx="7" fill="#334155"/>
    <rect x="20" y="60" width="100" height="34" rx="10" fill="#1E293B" stroke="#6366F1"/>
    <rect x="20" y="110" width="100" height="12" rx="6" fill="#334155"/>
    <rect x="20" y="136" width="82" height="12" rx="6" fill="#334155"/>
    <rect x="20" y="162" width="94" height="12" rx="6" fill="#334155"/>
    <rect x="20" y="214" width="100" height="12" rx="6" fill="#334155"/>
    <rect x="20" y="240" width="74" height="12" rx="6" fill="#334155"/>
    <rect x="20" y="266" width="90" height="12" rx="6" fill="#334155"/>

    <g transform="translate(172 34)">
      <text x="0" y="0" fill="#0F172A" font-family="Inter,Arial,sans-serif" font-size="14" font-weight="700" letter-spacing="2">DASHBOARD PLAYGROUND</text>
      <rect x="0" y="32" width="250" height="84" rx="16" fill="#EEF2FF"/>
      <text x="18" y="58" fill="#64748B" font-family="Inter,Arial,sans-serif" font-size="12">Active Variant</text>
      <text x="18" y="88" fill="#0F172A" font-family="Inter,Arial,sans-serif" font-size="20" font-weight="700">Dual Panel</text>

      <rect x="0" y="136" width="250" height="84" rx="16" fill="#ECFDF5"/>
      <text x="18" y="162" fill="#64748B" font-family="Inter,Arial,sans-serif" font-size="12">Search State</text>
      <text x="18" y="192" fill="#0F172A" font-family="Inter,Arial,sans-serif" font-size="20" font-weight="700">Live filtering</text>

      <rect x="0" y="240" width="250" height="170" rx="16" fill="#F8FAFC" stroke="#E2E8F0"/>
      <text x="18" y="268" fill="#64748B" font-family="Inter,Arial,sans-serif" font-size="12">ACTIVITY TIMELINE</text>
      <circle cx="22" cy="304" r="5" fill="#6366F1"/>
      <rect x="38" y="299" width="170" height="10" rx="5" fill="#CBD5E1"/>
      <circle cx="22" cy="336" r="5" fill="#10B981"/>
      <rect x="38" y="331" width="142" height="10" rx="5" fill="#CBD5E1"/>
      <circle cx="22" cy="368" r="5" fill="#EA580C"/>
      <rect x="38" y="363" width="186" height="10" rx="5" fill="#CBD5E1"/>
    </g>
  </g>

  <text x="1130" y="596" text-anchor="end" fill="#94A3B8" font-family="Inter,Arial,sans-serif" font-size="13" font-weight="700" letter-spacing="3">NISCHHALSUBBA / SIDEBAR-SHOWCASE</text>
</svg>